name rise44.8762peak52.3436fall86.788.mot
datacolumns 19
datarows 36
range 22.66324600000000 22.72158000000000
endheader
time	ground_force1_vx	ground_force1_vy	ground_force1_vz	ground_force1_px	ground_force1_py	ground_force1_pz	ground_force2_vx	ground_force2_vy	ground_force2_vz	ground_force2_px	ground_force2_py	ground_force2_pz	ground_torque1_x	ground_torque1_y	ground_torque1_z	ground_torque2_x	ground_torque2_y	ground_torque2_z	
22.66324600000000	64.26239099999999	781.19430299999999	51.97652900000000	0.32157300000000	0.00000000000000	0.09683600000000	0.00000000000000	0.00000000000000	0.00000000000000	0.00000000000000	0.00000000000000	0.00000000000000	0.00000000000000	20.19396300000000	0.00000000000000	0.00000000000000	0.00000000000000	0.00000000000000	
22.66490900000000	63.49283900000000	783.18159000000003	52.07439200000000	0.32053500000000	0.00000000000000	0.09684700000000	0.00000000000000	0.00000000000000	0.00000000000000	0.00000000000000	0.00000000000000	0.00000000000000	0.00000000000000	20.23022500000000	0.00000000000000	0.00000000000000	0.00000000000000	0.00000000000000	
22.66657500000000	62.72217000000000	785.00590999999997	52.17290700000000	0.31951000000000	0.00000000000000	0.09685800000000	0.00000000000000	0.00000000000000	0.00000000000000	0.00000000000000	0.00000000000000	0.00000000000000	0.00000000000000	20.26788900000000	0.00000000000000	0.00000000000000	0.00000000000000	0.00000000000000	
22.66825000000000	61.95136300000000	786.66873099999998	52.27215800000000	0.31849900000000	0.00000000000000	0.09687000000000	0.00000000000000	0.00000000000000	0.00000000000000	0.00000000000000	0.00000000000000	0.00000000000000	0.00000000000000	20.30697600000000	0.00000000000000	0.00000000000000	0.00000000000000	0.00000000000000	
22.66991500000000	61.18131900000000	788.17167800000004	52.37214100000000	0.31750100000000	0.00000000000000	0.09688200000000	0.00000000000000	0.00000000000000	0.00000000000000	0.00000000000000	0.00000000000000	0.00000000000000	0.00000000000000	20.34745800000000	0.00000000000000	0.00000000000000	0.00000000000000	0.00000000000000	
22.67157400000000	60.41286300000000	789.51652999999999	52.47276400000000	0.31651600000000	0.00000000000000	0.09689400000000	0.00000000000000	0.00000000000000	0.00000000000000	0.00000000000000	0.00000000000000	0.00000000000000	0.00000000000000	20.38925800000000	0.00000000000000	0.00000000000000	0.00000000000000	0.00000000000000	
22.67324600000000	59.64674100000000	790.70522400000004	52.57385700000000	0.31554200000000	0.00000000000000	0.09690600000000	0.00000000000000	0.00000000000000	0.00000000000000	0.00000000000000	0.00000000000000	0.00000000000000	0.00000000000000	20.43225800000000	0.00000000000000	0.00000000000000	0.00000000000000	0.00000000000000	
22.67491000000000	58.88362900000000	791.73985500000003	52.67517200000000	0.31457900000000	0.00000000000000	0.09691900000000	0.00000000000000	0.00000000000000	0.00000000000000	0.00000000000000	0.00000000000000	0.00000000000000	0.00000000000000	20.47629800000000	0.00000000000000	0.00000000000000	0.00000000000000	0.00000000000000	
22.67658200000000	58.12412800000000	792.62267199999997	52.77638900000000	0.31362600000000	0.00000000000000	0.09693100000000	0.00000000000000	0.00000000000000	0.00000000000000	0.00000000000000	0.00000000000000	0.00000000000000	0.00000000000000	20.52118100000000	0.00000000000000	0.00000000000000	0.00000000000000	0.00000000000000	
22.67825000000000	57.36877300000000	793.35608300000001	52.87712300000000	0.31268200000000	0.00000000000000	0.09694400000000	0.00000000000000	0.00000000000000	0.00000000000000	0.00000000000000	0.00000000000000	0.00000000000000	0.00000000000000	20.56667500000000	0.00000000000000	0.00000000000000	0.00000000000000	0.00000000000000	
22.67991200000000	56.61802900000000	793.94264799999996	52.97692900000000	0.31174700000000	0.00000000000000	0.09695700000000	0.00000000000000	0.00000000000000	0.00000000000000	0.00000000000000	0.00000000000000	0.00000000000000	0.00000000000000	20.61251600000000	0.00000000000000	0.00000000000000	0.00000000000000	0.00000000000000	
22.68158300000000	55.87230000000000	794.38508100000001	53.07530800000000	0.31081900000000	0.00000000000000	0.09697100000000	0.00000000000000	0.00000000000000	0.00000000000000	0.00000000000000	0.00000000000000	0.00000000000000	0.00000000000000	20.65841500000000	0.00000000000000	0.00000000000000	0.00000000000000	0.00000000000000	
22.68324400000000	55.13192800000000	794.68624799999998	53.17171400000000	0.30989700000000	0.00000000000000	0.09698400000000	0.00000000000000	0.00000000000000	0.00000000000000	0.00000000000000	0.00000000000000	0.00000000000000	0.00000000000000	20.70405700000000	0.00000000000000	0.00000000000000	0.00000000000000	0.00000000000000	
22.68491600000000	54.39720000000000	794.84915899999999	53.26556200000000	0.30898000000000	0.00000000000000	0.09699800000000	0.00000000000000	0.00000000000000	0.00000000000000	0.00000000000000	0.00000000000000	0.00000000000000	0.00000000000000	20.74910900000000	0.00000000000000	0.00000000000000	0.00000000000000	0.00000000000000	
22.68658200000000	53.66834900000000	794.87697200000002	53.35623000000000	0.30806800000000	0.00000000000000	0.09701100000000	0.00000000000000	0.00000000000000	0.00000000000000	0.00000000000000	0.00000000000000	0.00000000000000	0.00000000000000	20.79321900000000	0.00000000000000	0.00000000000000	0.00000000000000	0.00000000000000	
22.68824700000000	52.94555700000000	794.77298299999995	53.44307300000000	0.30715900000000	0.00000000000000	0.09702500000000	0.00000000000000	0.00000000000000	0.00000000000000	0.00000000000000	0.00000000000000	0.00000000000000	0.00000000000000	20.83602500000000	0.00000000000000	0.00000000000000	0.00000000000000	0.00000000000000	
22.68991100000000	52.22896200000000	794.54062399999998	53.52542600000000	0.30625200000000	0.00000000000000	0.09703900000000	0.00000000000000	0.00000000000000	0.00000000000000	0.00000000000000	0.00000000000000	0.00000000000000	0.00000000000000	20.87715600000000	0.00000000000000	0.00000000000000	0.00000000000000	0.00000000000000	
22.69158300000000	51.51866100000000	794.18345599999998	53.60260900000000	0.30534700000000	0.00000000000000	0.09705300000000	0.00000000000000	0.00000000000000	0.00000000000000	0.00000000000000	0.00000000000000	0.00000000000000	0.00000000000000	20.91623400000000	0.00000000000000	0.00000000000000	0.00000000000000	0.00000000000000	
22.69324500000000	50.81471000000000	793.70516599999996	53.67393800000000	0.30444200000000	0.00000000000000	0.09706700000000	0.00000000000000	0.00000000000000	0.00000000000000	0.00000000000000	0.00000000000000	0.00000000000000	0.00000000000000	20.95288300000000	0.00000000000000	0.00000000000000	0.00000000000000	0.00000000000000	
22.69491300000000	50.11713500000000	793.10955999999999	53.73873000000000	0.30353600000000	0.00000000000000	0.09708000000000	0.00000000000000	0.00000000000000	0.00000000000000	0.00000000000000	0.00000000000000	0.00000000000000	0.00000000000000	20.98672600000000	0.00000000000000	0.00000000000000	0.00000000000000	0.00000000000000	
22.69658200000000	49.42592900000000	792.40055199999995	53.79630900000000	0.30262900000000	0.00000000000000	0.09709400000000	0.00000000000000	0.00000000000000	0.00000000000000	0.00000000000000	0.00000000000000	0.00000000000000	0.00000000000000	21.01739600000000	0.00000000000000	0.00000000000000	0.00000000000000	0.00000000000000	
22.69824900000000	48.74106200000000	791.58216300000004	53.84601400000000	0.30171900000000	0.00000000000000	0.09710700000000	0.00000000000000	0.00000000000000	0.00000000000000	0.00000000000000	0.00000000000000	0.00000000000000	0.00000000000000	21.04453000000000	0.00000000000000	0.00000000000000	0.00000000000000	0.00000000000000	
22.69991400000000	48.06248000000000	790.65850899999998	53.88720200000000	0.30080500000000	0.00000000000000	0.09712100000000	0.00000000000000	0.00000000000000	0.00000000000000	0.00000000000000	0.00000000000000	0.00000000000000	0.00000000000000	21.06778300000000	0.00000000000000	0.00000000000000	0.00000000000000	0.00000000000000	
22.70158000000000	47.39011200000000	789.63379599999996	53.91926000000000	0.29988800000000	0.00000000000000	0.09713400000000	0.00000000000000	0.00000000000000	0.00000000000000	0.00000000000000	0.00000000000000	0.00000000000000	0.00000000000000	21.08682200000000	0.00000000000000	0.00000000000000	0.00000000000000	0.00000000000000	
22.70324300000000	46.72387200000000	788.51230899999996	53.94160100000000	0.29896600000000	0.00000000000000	0.09714600000000	0.00000000000000	0.00000000000000	0.00000000000000	0.00000000000000	0.00000000000000	0.00000000000000	0.00000000000000	21.10133400000000	0.00000000000000	0.00000000000000	0.00000000000000	0.00000000000000	
22.70491000000000	46.06366300000000	787.29840100000001	53.95367800000000	0.29803800000000	0.00000000000000	0.09715800000000	0.00000000000000	0.00000000000000	0.00000000000000	0.00000000000000	0.00000000000000	0.00000000000000	0.00000000000000	21.11102500000000	0.00000000000000	0.00000000000000	0.00000000000000	0.00000000000000	
22.70657700000000	45.40937900000000	785.99649199999999	53.95498300000000	0.29710400000000	0.00000000000000	0.09717000000000	0.00000000000000	0.00000000000000	0.00000000000000	0.00000000000000	0.00000000000000	0.00000000000000	0.00000000000000	21.11562600000000	0.00000000000000	0.00000000000000	0.00000000000000	0.00000000000000	
22.70824700000000	44.76091400000000	784.61105099999997	53.94505500000000	0.29616300000000	0.00000000000000	0.09718200000000	0.00000000000000	0.00000000000000	0.00000000000000	0.00000000000000	0.00000000000000	0.00000000000000	0.00000000000000	21.11489300000000	0.00000000000000	0.00000000000000	0.00000000000000	0.00000000000000	
22.70990800000000	44.11815500000000	783.14658899999995	53.92348100000000	0.29521400000000	0.00000000000000	0.09719200000000	0.00000000000000	0.00000000000000	0.00000000000000	0.00000000000000	0.00000000000000	0.00000000000000	0.00000000000000	21.10860900000000	0.00000000000000	0.00000000000000	0.00000000000000	0.00000000000000	
22.71158400000000	43.48099300000000	781.60765300000003	53.88990000000000	0.29425800000000	0.00000000000000	0.09720300000000	0.00000000000000	0.00000000000000	0.00000000000000	0.00000000000000	0.00000000000000	0.00000000000000	0.00000000000000	21.09658700000000	0.00000000000000	0.00000000000000	0.00000000000000	0.00000000000000	
22.71324700000000	42.84932500000000	779.99881200000004	53.84400600000000	0.29329400000000	0.00000000000000	0.09721200000000	0.00000000000000	0.00000000000000	0.00000000000000	0.00000000000000	0.00000000000000	0.00000000000000	0.00000000000000	21.07866900000000	0.00000000000000	0.00000000000000	0.00000000000000	0.00000000000000	
22.71490900000000	42.22305000000000	778.32464800000002	53.78555200000000	0.29232200000000	0.00000000000000	0.09722100000000	0.00000000000000	0.00000000000000	0.00000000000000	0.00000000000000	0.00000000000000	0.00000000000000	0.00000000000000	21.05472800000000	0.00000000000000	0.00000000000000	0.00000000000000	0.00000000000000	
22.71657800000000	41.60207900000000	776.58974799999999	53.71434700000000	0.29134100000000	0.00000000000000	0.09722900000000	0.00000000000000	0.00000000000000	0.00000000000000	0.00000000000000	0.00000000000000	0.00000000000000	0.00000000000000	21.02467000000000	0.00000000000000	0.00000000000000	0.00000000000000	0.00000000000000	
22.71824500000000	40.98633000000000	774.79868999999997	53.63026500000000	0.29035100000000	0.00000000000000	0.09723700000000	0.00000000000000	0.00000000000000	0.00000000000000	0.00000000000000	0.00000000000000	0.00000000000000	0.00000000000000	20.98843400000000	0.00000000000000	0.00000000000000	0.00000000000000	0.00000000000000	
22.71991100000000	40.37573500000000	772.95604100000003	53.53323600000000	0.28935300000000	0.00000000000000	0.09724300000000	0.00000000000000	0.00000000000000	0.00000000000000	0.00000000000000	0.00000000000000	0.00000000000000	0.00000000000000	20.94599100000000	0.00000000000000	0.00000000000000	0.00000000000000	0.00000000000000	
22.72158000000000	39.77023900000000	771.06633699999998	53.42325700000000	0.28834600000000	0.00000000000000	0.09724900000000	0.00000000000000	0.00000000000000	0.00000000000000	0.00000000000000	0.00000000000000	0.00000000000000	0.00000000000000	20.89734500000000	0.00000000000000	0.00000000000000	0.00000000000000	0.00000000000000	
